<svg width="697" height="32" viewBox="0 0 697 32" fill="none" xmlns="http://www.w3.org/2000/svg">
<path d="M43.3823 6.78027V20.999H41.5854V6.78027H43.3823ZM48.1772 13.1768V14.7197H43.0405V13.1768H48.1772ZM48.9878 6.78027V8.32324H43.0405V6.78027H48.9878ZM52.2354 10.4326V20.999H50.5167V10.4326H52.2354ZM50.419 7.62988C50.419 7.33691 50.5004 7.08952 50.6632 6.8877C50.8259 6.68587 51.0701 6.58496 51.3956 6.58496C51.7211 6.58496 51.9653 6.68587 52.128 6.8877C52.2973 7.08952 52.3819 7.33691 52.3819 7.62988C52.3819 7.90983 52.2973 8.15072 52.128 8.35254C51.9653 8.54785 51.7211 8.64551 51.3956 8.64551C51.0701 8.64551 50.8259 8.54785 50.6632 8.35254C50.5004 8.15072 50.419 7.90983 50.419 7.62988ZM56.0983 12.0928V20.999H54.3698V10.4326H56.0397L56.0983 12.0928ZM58.7253 10.374L58.7351 12.0537C58.5918 12.0212 58.4616 12.0016 58.3444 11.9951C58.2338 11.9821 58.1035 11.9756 57.9538 11.9756C57.6283 11.9756 57.3418 12.0407 57.0944 12.1709C56.8535 12.3011 56.6452 12.4834 56.4694 12.7178C56.2937 12.9521 56.1537 13.2321 56.0495 13.5576C55.9453 13.8766 55.8737 14.2282 55.8347 14.6123L55.3854 14.9053C55.3854 14.2673 55.4343 13.6683 55.5319 13.1084C55.6361 12.5485 55.7956 12.0537 56.0104 11.624C56.2253 11.1878 56.4987 10.8493 56.8308 10.6084C57.1693 10.361 57.5729 10.2373 58.0417 10.2373C58.1459 10.2373 58.2728 10.2536 58.4226 10.2861C58.5788 10.3122 58.6797 10.3415 58.7253 10.374ZM61.5921 12.5322V20.999H59.8733V10.4326H61.4944L61.5921 12.5322ZM61.2405 15.3154L60.4397 15.2861C60.4332 14.5635 60.5049 13.8962 60.6546 13.2842C60.8043 12.6657 61.0289 12.1286 61.3284 11.6729C61.6344 11.2171 62.0153 10.8656 62.471 10.6182C62.9332 10.3643 63.4703 10.2373 64.0823 10.2373C64.486 10.2373 64.8603 10.3089 65.2054 10.4521C65.5569 10.5889 65.8629 10.807 66.1233 11.1064C66.3838 11.4059 66.5856 11.79 66.7288 12.2588C66.8785 12.7275 66.9534 13.2939 66.9534 13.958V20.999H65.2249V14.0459C65.2249 13.4925 65.15 13.0498 65.0003 12.7178C64.8571 12.3857 64.652 12.1449 64.3851 11.9951C64.1181 11.8389 63.7991 11.7607 63.428 11.7607C63.0049 11.7607 62.65 11.8551 62.3636 12.0439C62.0836 12.2327 61.859 12.4932 61.6897 12.8252C61.527 13.1572 61.4098 13.5381 61.3382 13.9678C61.2731 14.391 61.2405 14.8402 61.2405 15.3154ZM66.9339 14.3193L65.7815 14.6904C65.775 14.111 65.8466 13.5544 65.9964 13.0205C66.1461 12.4867 66.3675 12.0114 66.6604 11.5947C66.9599 11.1781 67.331 10.8493 67.7737 10.6084C68.2164 10.361 68.7308 10.2373 69.3167 10.2373C69.7985 10.2373 70.2249 10.3122 70.596 10.4619C70.9671 10.6117 71.2796 10.8428 71.5335 11.1553C71.7939 11.4613 71.9892 11.8551 72.1194 12.3369C72.2496 12.8187 72.3147 13.3916 72.3147 14.0557V20.999H70.5862V14.0361C70.5862 13.4437 70.5114 12.9847 70.3616 12.6592C70.2184 12.3271 70.0133 12.096 69.7464 11.9658C69.4795 11.8291 69.1604 11.7607 68.7894 11.7607C68.4899 11.7607 68.2229 11.8291 67.9886 11.9658C67.7607 12.1025 67.5687 12.2913 67.4124 12.5322C67.2562 12.7666 67.1357 13.0368 67.0511 13.3428C66.9729 13.6488 66.9339 13.9743 66.9339 14.3193ZM79.4979 19.1924V13.46C79.4979 13.0433 79.4328 12.708 79.3026 12.4541C79.1789 12.2002 78.9901 12.0146 78.7362 11.8975C78.4888 11.7803 78.1763 11.7217 77.7987 11.7217C77.4341 11.7217 77.1184 11.7965 76.8515 11.9463C76.591 12.096 76.3892 12.2946 76.246 12.542C76.1093 12.7894 76.0409 13.0628 76.0409 13.3623H74.3124C74.3124 12.9847 74.3938 12.6104 74.5565 12.2393C74.7258 11.8682 74.9667 11.5329 75.2792 11.2334C75.5917 10.9274 75.966 10.6865 76.4022 10.5107C76.845 10.3285 77.3397 10.2373 77.8866 10.2373C78.5377 10.2373 79.1138 10.3447 79.6151 10.5596C80.1164 10.7679 80.5103 11.1097 80.7968 11.585C81.0832 12.0602 81.2265 12.6917 81.2265 13.4795V18.6943C81.2265 19.0459 81.2525 19.4202 81.3046 19.8174C81.3632 20.2145 81.4446 20.5563 81.5487 20.8428V20.999H79.7616C79.677 20.7907 79.6119 20.514 79.5663 20.1689C79.5207 19.8174 79.4979 19.4919 79.4979 19.1924ZM79.7714 14.5928L79.7909 15.8623H78.5897C78.1796 15.8623 77.8052 15.9079 77.4667 15.999C77.1347 16.0902 76.8482 16.2236 76.6073 16.3994C76.3664 16.5687 76.1809 16.7803 76.0507 17.0342C75.927 17.2881 75.8651 17.5778 75.8651 17.9033C75.8651 18.3265 75.9237 18.665 76.0409 18.9189C76.1581 19.1663 76.3339 19.3454 76.5683 19.4561C76.8026 19.5667 77.0989 19.6221 77.4569 19.6221C77.8931 19.6221 78.2772 19.5212 78.6093 19.3193C78.9413 19.1175 79.1985 18.8734 79.3808 18.5869C79.5696 18.3005 79.6575 18.0335 79.6444 17.7861L80.0253 18.5967C79.9992 18.8506 79.9146 19.1273 79.7714 19.4268C79.6347 19.7197 79.4426 20.0029 79.1952 20.2764C78.9478 20.5433 78.6548 20.7646 78.3163 20.9404C77.9843 21.1097 77.6099 21.1943 77.1933 21.1943C76.5813 21.1943 76.0442 21.0771 75.5819 20.8428C75.1262 20.6084 74.7714 20.2633 74.5175 19.8076C74.2636 19.3519 74.1366 18.7887 74.1366 18.1182C74.1366 17.6104 74.2245 17.1416 74.4003 16.7119C74.5761 16.2822 74.8365 15.9111 75.1815 15.5986C75.5266 15.2796 75.9595 15.0322 76.4804 14.8564C77.0077 14.6807 77.6164 14.5928 78.3065 14.5928H79.7714ZM91.0812 21.1943C90.4496 21.1943 89.88 21.0999 89.3722 20.9111C88.8644 20.7223 88.4314 20.4359 88.0733 20.0518C87.7153 19.6611 87.4418 19.1696 87.253 18.5771C87.0642 17.9847 86.9698 17.2848 86.9698 16.4775V15.2861C86.9698 14.3551 87.0772 13.5674 87.2921 12.9229C87.5134 12.2783 87.8097 11.7607 88.1808 11.3701C88.5519 10.973 88.9718 10.6865 89.4405 10.5107C89.9093 10.3285 90.391 10.2373 90.8858 10.2373C91.5499 10.2373 92.1163 10.3447 92.5851 10.5596C93.0538 10.7744 93.4347 11.0934 93.7276 11.5166C94.0206 11.9398 94.2355 12.4606 94.3722 13.0791C94.5154 13.6976 94.587 14.4105 94.587 15.2178V16.2236H87.9855V14.749H92.8585V14.5049C92.8325 13.958 92.7576 13.4762 92.6339 13.0596C92.5167 12.6429 92.3214 12.3174 92.048 12.083C91.7745 11.8421 91.3871 11.7217 90.8858 11.7217C90.5668 11.7217 90.2706 11.777 89.9972 11.8877C89.7302 11.9919 89.4991 12.1774 89.3038 12.4443C89.115 12.7048 88.9653 13.0661 88.8546 13.5283C88.7504 13.9906 88.6983 14.5765 88.6983 15.2861V16.4775C88.6983 17.0439 88.7504 17.5322 88.8546 17.9424C88.9653 18.346 89.1248 18.6813 89.3331 18.9482C89.548 19.2087 89.8084 19.404 90.1144 19.5342C90.4269 19.6579 90.7817 19.7197 91.1788 19.7197C91.7582 19.7197 92.2368 19.609 92.6144 19.3877C92.992 19.1598 93.3207 18.8701 93.6007 18.5186L94.5089 19.6025C94.3201 19.8695 94.0727 20.1266 93.7667 20.374C93.4672 20.6149 93.0961 20.8135 92.6534 20.9697C92.2172 21.1195 91.6931 21.1943 91.0812 21.1943ZM97.9323 5.99902V20.999H96.2136V5.99902H97.9323ZM103.846 21.1943C103.214 21.1943 102.645 21.0999 102.137 20.9111C101.629 20.7223 101.196 20.4359 100.838 20.0518C100.48 19.6611 100.207 19.1696 100.018 18.5771C99.8291 17.9847 99.7347 17.2848 99.7347 16.4775V15.2861C99.7347 14.3551 99.8421 13.5674 100.057 12.9229C100.278 12.2783 100.575 11.7607 100.946 11.3701C101.317 10.973 101.737 10.6865 102.205 10.5107C102.674 10.3285 103.156 10.2373 103.651 10.2373C104.315 10.2373 104.881 10.3447 105.35 10.5596C105.819 10.7744 106.2 11.0934 106.492 11.5166C106.785 11.9398 107 12.4606 107.137 13.0791C107.28 13.6976 107.352 14.4105 107.352 15.2178V16.2236H100.75V14.749H105.623V14.5049C105.597 13.958 105.522 13.4762 105.399 13.0596C105.282 12.6429 105.086 12.3174 104.813 12.083C104.539 11.8421 104.152 11.7217 103.651 11.7217C103.332 11.7217 103.035 11.777 102.762 11.8877C102.495 11.9919 102.264 12.1774 102.069 12.4443C101.88 12.7048 101.73 13.0661 101.619 13.5283C101.515 13.9906 101.463 14.5765 101.463 15.2861V16.4775C101.463 17.0439 101.515 17.5322 101.619 17.9424C101.73 18.346 101.89 18.6813 102.098 18.9482C102.313 19.2087 102.573 19.404 102.879 19.5342C103.192 19.6579 103.547 19.7197 103.944 19.7197C104.523 19.7197 105.002 19.609 105.379 19.3877C105.757 19.1598 106.086 18.8701 106.366 18.5186L107.274 19.6025C107.085 19.8695 106.838 20.1266 106.532 20.374C106.232 20.6149 105.861 20.8135 105.418 20.9697C104.982 21.1195 104.458 21.1943 103.846 21.1943ZM112.504 19.7197C112.849 19.7197 113.161 19.6514 113.441 19.5146C113.728 19.3714 113.962 19.1501 114.144 18.8506C114.327 18.5446 114.431 18.1475 114.457 17.6592H116.078C116.052 18.3623 115.873 18.9808 115.541 19.5146C115.215 20.042 114.786 20.4554 114.252 20.7549C113.725 21.0479 113.142 21.1943 112.504 21.1943C111.82 21.1943 111.225 21.0837 110.717 20.8623C110.215 20.641 109.799 20.3219 109.467 19.9053C109.141 19.4821 108.897 18.971 108.734 18.3721C108.572 17.7666 108.49 17.0798 108.49 16.3115V15.1201C108.49 14.3519 108.572 13.6683 108.734 13.0693C108.897 12.4639 109.141 11.9528 109.467 11.5361C109.799 11.113 110.215 10.7907 110.717 10.5693C111.225 10.348 111.82 10.2373 112.504 10.2373C113.22 10.2373 113.838 10.3903 114.359 10.6963C114.887 10.9958 115.297 11.432 115.59 12.0049C115.889 12.5713 116.052 13.2581 116.078 14.0654H114.457C114.431 13.5446 114.336 13.1117 114.174 12.7666C114.011 12.415 113.79 12.1546 113.51 11.9854C113.23 11.8096 112.894 11.7217 112.504 11.7217C112.048 11.7217 111.67 11.8031 111.371 11.9658C111.078 12.1221 110.847 12.3499 110.678 12.6494C110.508 12.9489 110.388 13.307 110.316 13.7236C110.251 14.1403 110.219 14.6058 110.219 15.1201V16.3115C110.219 16.8258 110.251 17.2946 110.316 17.7178C110.388 18.1344 110.505 18.4925 110.668 18.792C110.837 19.0915 111.072 19.3226 111.371 19.4854C111.67 19.6416 112.048 19.7197 112.504 19.7197ZM121.337 10.4326V11.8193H116.406V10.4326H121.337ZM118.017 7.86426H119.746V18.3818C119.746 18.7399 119.788 19.0101 119.873 19.1924C119.964 19.3747 120.078 19.4951 120.214 19.5537C120.351 19.6123 120.498 19.6416 120.654 19.6416C120.771 19.6416 120.901 19.6286 121.044 19.6025C121.188 19.57 121.285 19.5439 121.337 19.5244L121.328 20.999C121.21 21.0446 121.054 21.0869 120.859 21.126C120.664 21.1715 120.416 21.1943 120.117 21.1943C119.746 21.1943 119.401 21.1064 119.082 20.9307C118.763 20.7549 118.505 20.4619 118.31 20.0518C118.115 19.6351 118.017 19.0752 118.017 18.3721V7.86426ZM124.526 12.0928V20.999H122.798V10.4326H124.468L124.526 12.0928ZM127.153 10.374L127.163 12.0537C127.02 12.0212 126.89 12.0016 126.773 11.9951C126.662 11.9821 126.532 11.9756 126.382 11.9756C126.056 11.9756 125.77 12.0407 125.523 12.1709C125.282 12.3011 125.073 12.4834 124.898 12.7178C124.722 12.9521 124.582 13.2321 124.478 13.5576C124.373 13.8766 124.302 14.2282 124.263 14.6123L123.814 14.9053C123.814 14.2673 123.862 13.6683 123.96 13.1084C124.064 12.5485 124.224 12.0537 124.439 11.624C124.653 11.1878 124.927 10.8493 125.259 10.6084C125.597 10.361 126.001 10.2373 126.47 10.2373C126.574 10.2373 126.701 10.2536 126.851 10.2861C127.007 10.3122 127.108 10.3415 127.153 10.374ZM127.735 16.2236V15.2178C127.735 14.3975 127.839 13.6781 128.048 13.0596C128.256 12.4346 128.546 11.9137 128.917 11.4971C129.288 11.0804 129.721 10.7679 130.216 10.5596C130.71 10.3447 131.241 10.2373 131.807 10.2373C132.387 10.2373 132.924 10.3447 133.419 10.5596C133.913 10.7679 134.346 11.0804 134.717 11.4971C135.095 11.9137 135.388 12.4346 135.596 13.0596C135.805 13.6781 135.909 14.3975 135.909 15.2178V16.2236C135.909 17.0439 135.805 17.7666 135.596 18.3916C135.388 19.0101 135.098 19.5277 134.727 19.9443C134.356 20.361 133.923 20.6735 133.428 20.8818C132.934 21.0902 132.4 21.1943 131.827 21.1943C131.254 21.1943 130.72 21.0902 130.225 20.8818C129.731 20.6735 129.294 20.361 128.917 19.9443C128.546 19.5277 128.256 19.0101 128.048 18.3916C127.839 17.7666 127.735 17.0439 127.735 16.2236ZM129.464 15.2178V16.2236C129.464 16.8031 129.522 17.3109 129.639 17.7471C129.757 18.1833 129.923 18.5479 130.137 18.8408C130.352 19.1338 130.603 19.3551 130.889 19.5049C131.176 19.6481 131.488 19.7197 131.827 19.7197C132.217 19.7197 132.559 19.6481 132.852 19.5049C133.152 19.3551 133.399 19.1338 133.594 18.8408C133.79 18.5479 133.936 18.1833 134.034 17.7471C134.132 17.3109 134.18 16.8031 134.18 16.2236V15.2178C134.18 14.6383 134.122 14.1338 134.005 13.7041C133.887 13.2679 133.721 12.9033 133.507 12.6104C133.292 12.3109 133.038 12.0895 132.745 11.9463C132.458 11.7965 132.146 11.7217 131.807 11.7217C131.475 11.7217 131.166 11.7965 130.88 11.9463C130.593 12.0895 130.342 12.3109 130.128 12.6104C129.919 12.9033 129.757 13.2679 129.639 13.7041C129.522 14.1338 129.464 14.6383 129.464 15.2178ZM130.723 8.87012L132.618 5.99902H134.796L132.178 8.87012H130.723ZM139.264 12.6885V20.999H137.535V10.4326H139.166L139.264 12.6885ZM138.844 15.3154L138.141 15.2861C138.134 14.5635 138.216 13.8962 138.385 13.2842C138.561 12.6657 138.808 12.1286 139.127 11.6729C139.453 11.2171 139.84 10.8656 140.289 10.6182C140.739 10.3643 141.237 10.2373 141.783 10.2373C142.213 10.2373 142.604 10.3089 142.955 10.4521C143.307 10.5889 143.606 10.8102 143.854 11.1162C144.101 11.4222 144.29 11.8193 144.42 12.3076C144.557 12.7894 144.625 13.3786 144.625 14.0752V20.999H142.897V14.0557C142.897 13.5023 142.835 13.0596 142.711 12.7275C142.594 12.389 142.412 12.1449 142.164 11.9951C141.923 11.8389 141.617 11.7607 141.246 11.7607C140.908 11.7607 140.592 11.8551 140.299 12.0439C140.006 12.2327 139.749 12.4932 139.528 12.8252C139.313 13.1572 139.144 13.5381 139.02 13.9678C138.903 14.391 138.844 14.8402 138.844 15.3154ZM148.478 10.4326V20.999H146.76V10.4326H148.478ZM146.662 7.62988C146.662 7.33691 146.743 7.08952 146.906 6.8877C147.069 6.68587 147.313 6.58496 147.639 6.58496C147.964 6.58496 148.208 6.68587 148.371 6.8877C148.54 7.08952 148.625 7.33691 148.625 7.62988C148.625 7.90983 148.54 8.15072 148.371 8.35254C148.208 8.54785 147.964 8.64551 147.639 8.64551C147.313 8.64551 147.069 8.54785 146.906 8.35254C146.743 8.15072 146.662 7.90983 146.662 7.62988ZM154.275 19.7197C154.62 19.7197 154.932 19.6514 155.212 19.5146C155.499 19.3714 155.733 19.1501 155.916 18.8506C156.098 18.5446 156.202 18.1475 156.228 17.6592H157.849C157.823 18.3623 157.644 18.9808 157.312 19.5146C156.986 20.042 156.557 20.4554 156.023 20.7549C155.496 21.0479 154.913 21.1943 154.275 21.1943C153.591 21.1943 152.996 21.0837 152.488 20.8623C151.986 20.641 151.57 20.3219 151.238 19.9053C150.912 19.4821 150.668 18.971 150.505 18.3721C150.343 17.7666 150.261 17.0798 150.261 16.3115V15.1201C150.261 14.3519 150.343 13.6683 150.505 13.0693C150.668 12.4639 150.912 11.9528 151.238 11.5361C151.57 11.113 151.986 10.7907 152.488 10.5693C152.996 10.348 153.591 10.2373 154.275 10.2373C154.991 10.2373 155.61 10.3903 156.13 10.6963C156.658 10.9958 157.068 11.432 157.361 12.0049C157.66 12.5713 157.823 13.2581 157.849 14.0654H156.228C156.202 13.5446 156.108 13.1117 155.945 12.7666C155.782 12.415 155.561 12.1546 155.281 11.9854C155.001 11.8096 154.666 11.7217 154.275 11.7217C153.819 11.7217 153.442 11.8031 153.142 11.9658C152.849 12.1221 152.618 12.3499 152.449 12.6494C152.279 12.9489 152.159 13.307 152.087 13.7236C152.022 14.1403 151.99 14.6058 151.99 15.1201V16.3115C151.99 16.8258 152.022 17.2946 152.087 17.7178C152.159 18.1344 152.276 18.4925 152.439 18.792C152.608 19.0915 152.843 19.3226 153.142 19.4854C153.442 19.6416 153.819 19.7197 154.275 19.7197ZM164.427 19.1924V13.46C164.427 13.0433 164.362 12.708 164.232 12.4541C164.108 12.2002 163.919 12.0146 163.665 11.8975C163.418 11.7803 163.105 11.7217 162.728 11.7217C162.363 11.7217 162.047 11.7965 161.78 11.9463C161.52 12.096 161.318 12.2946 161.175 12.542C161.038 12.7894 160.97 13.0628 160.97 13.3623H159.241C159.241 12.9847 159.323 12.6104 159.485 12.2393C159.655 11.8682 159.896 11.5329 160.208 11.2334C160.521 10.9274 160.895 10.6865 161.331 10.5107C161.774 10.3285 162.269 10.2373 162.816 10.2373C163.467 10.2373 164.043 10.3447 164.544 10.5596C165.045 10.7679 165.439 11.1097 165.726 11.585C166.012 12.0602 166.155 12.6917 166.155 13.4795V18.6943C166.155 19.0459 166.181 19.4202 166.233 19.8174C166.292 20.2145 166.373 20.5563 166.478 20.8428V20.999H164.691C164.606 20.7907 164.541 20.514 164.495 20.1689C164.45 19.8174 164.427 19.4919 164.427 19.1924ZM164.7 14.5928L164.72 15.8623H163.519C163.108 15.8623 162.734 15.9079 162.396 15.999C162.064 16.0902 161.777 16.2236 161.536 16.3994C161.295 16.5687 161.11 16.7803 160.98 17.0342C160.856 17.2881 160.794 17.5778 160.794 17.9033C160.794 18.3265 160.853 18.665 160.97 18.9189C161.087 19.1663 161.263 19.3454 161.497 19.4561C161.732 19.5667 162.028 19.6221 162.386 19.6221C162.822 19.6221 163.206 19.5212 163.538 19.3193C163.87 19.1175 164.127 18.8734 164.31 18.5869C164.498 18.3005 164.586 18.0335 164.573 17.7861L164.954 18.5967C164.928 18.8506 164.844 19.1273 164.7 19.4268C164.564 19.7197 164.372 20.0029 164.124 20.2764C163.877 20.5433 163.584 20.7646 163.245 20.9404C162.913 21.1097 162.539 21.1943 162.122 21.1943C161.51 21.1943 160.973 21.0771 160.511 20.8428C160.055 20.6084 159.7 20.2633 159.446 19.8076C159.192 19.3519 159.066 18.7887 159.066 18.1182C159.066 17.6104 159.153 17.1416 159.329 16.7119C159.505 16.2822 159.765 15.9111 160.11 15.5986C160.456 15.2796 160.888 15.0322 161.409 14.8564C161.937 14.6807 162.545 14.5928 163.235 14.5928H164.7ZM179.584 16.4775H181.381C181.336 17.4541 181.137 18.2972 180.785 19.0068C180.44 19.71 179.936 20.2503 179.272 20.6279C178.614 21.0055 177.791 21.1943 176.801 21.1943C176.091 21.1943 175.45 21.0544 174.877 20.7744C174.304 20.4945 173.813 20.0941 173.403 19.5732C172.999 19.0459 172.69 18.4144 172.475 17.6787C172.26 16.943 172.153 16.1162 172.153 15.1982V12.5713C172.153 11.6598 172.26 10.8363 172.475 10.1006C172.696 9.36491 173.012 8.73665 173.422 8.21582C173.839 7.68848 174.343 7.28483 174.936 7.00488C175.535 6.72493 176.212 6.58496 176.967 6.58496C177.892 6.58496 178.673 6.77051 179.311 7.1416C179.955 7.50618 180.45 8.04329 180.795 8.75293C181.147 9.45605 181.342 10.3187 181.381 11.3408H179.584C179.539 10.5921 179.422 9.9834 179.233 9.51465C179.044 9.03939 178.764 8.69108 178.393 8.46973C178.028 8.24186 177.553 8.12793 176.967 8.12793C176.446 8.12793 175.994 8.2321 175.61 8.44043C175.232 8.64876 174.92 8.94824 174.672 9.33887C174.431 9.72298 174.249 10.1885 174.125 10.7354C174.008 11.2757 173.95 11.8812 173.95 12.5518V15.1982C173.95 15.8232 173.998 16.4059 174.096 16.9463C174.2 17.4867 174.363 17.9619 174.584 18.3721C174.812 18.7757 175.108 19.0915 175.473 19.3193C175.838 19.5472 176.28 19.6611 176.801 19.6611C177.459 19.6611 177.979 19.5537 178.364 19.3389C178.748 19.124 179.031 18.7822 179.213 18.3135C179.402 17.8447 179.526 17.2327 179.584 16.4775ZM182.617 16.2236V15.2178C182.617 14.3975 182.721 13.6781 182.93 13.0596C183.138 12.4346 183.428 11.9137 183.799 11.4971C184.17 11.0804 184.603 10.7679 185.098 10.5596C185.592 10.3447 186.123 10.2373 186.689 10.2373C187.269 10.2373 187.806 10.3447 188.301 10.5596C188.795 10.7679 189.228 11.0804 189.6 11.4971C189.977 11.9137 190.27 12.4346 190.478 13.0596C190.687 13.6781 190.791 14.3975 190.791 15.2178V16.2236C190.791 17.0439 190.687 17.7666 190.478 18.3916C190.27 19.0101 189.98 19.5277 189.609 19.9443C189.238 20.361 188.805 20.6735 188.31 20.8818C187.816 21.0902 187.282 21.1943 186.709 21.1943C186.136 21.1943 185.602 21.0902 185.107 20.8818C184.613 20.6735 184.176 20.361 183.799 19.9443C183.428 19.5277 183.138 19.0101 182.93 18.3916C182.721 17.7666 182.617 17.0439 182.617 16.2236ZM184.346 15.2178V16.2236C184.346 16.8031 184.404 17.3109 184.521 17.7471C184.639 18.1833 184.805 18.5479 185.019 18.8408C185.234 19.1338 185.485 19.3551 185.771 19.5049C186.058 19.6481 186.37 19.7197 186.709 19.7197C187.1 19.7197 187.441 19.6481 187.734 19.5049C188.034 19.3551 188.281 19.1338 188.476 18.8408C188.672 18.5479 188.818 18.1833 188.916 17.7471C189.014 17.3109 189.062 16.8031 189.062 16.2236V15.2178C189.062 14.6383 189.004 14.1338 188.887 13.7041C188.769 13.2679 188.603 12.9033 188.389 12.6104C188.174 12.3109 187.92 12.0895 187.627 11.9463C187.34 11.7965 187.028 11.7217 186.689 11.7217C186.357 11.7217 186.048 11.7965 185.762 11.9463C185.475 12.0895 185.225 12.3109 185.01 12.6104C184.801 12.9033 184.639 13.2679 184.521 13.7041C184.404 14.1338 184.346 14.6383 184.346 15.2178ZM194.146 12.6885V20.999H192.417V10.4326H194.048L194.146 12.6885ZM193.726 15.3154L193.023 15.2861C193.016 14.5635 193.098 13.8962 193.267 13.2842C193.443 12.6657 193.69 12.1286 194.009 11.6729C194.335 11.2171 194.722 10.8656 195.171 10.6182C195.621 10.3643 196.119 10.2373 196.666 10.2373C197.095 10.2373 197.486 10.3089 197.837 10.4521C198.189 10.5889 198.488 10.8102 198.736 11.1162C198.983 11.4222 199.172 11.8193 199.302 12.3076C199.439 12.7894 199.507 13.3786 199.507 14.0752V20.999H197.779V14.0557C197.779 13.5023 197.717 13.0596 197.593 12.7275C197.476 12.389 197.294 12.1449 197.046 11.9951C196.806 11.8389 196.5 11.7607 196.128 11.7607C195.79 11.7607 195.474 11.8551 195.181 12.0439C194.888 12.2327 194.631 12.4932 194.41 12.8252C194.195 13.1572 194.026 13.5381 193.902 13.9678C193.785 14.391 193.726 14.8402 193.726 15.3154ZM205.362 10.4326V11.8193H200.431V10.4326H205.362ZM202.042 7.86426H203.771V18.3818C203.771 18.7399 203.813 19.0101 203.898 19.1924C203.989 19.3747 204.103 19.4951 204.239 19.5537C204.376 19.6123 204.523 19.6416 204.679 19.6416C204.796 19.6416 204.926 19.6286 205.069 19.6025C205.213 19.57 205.31 19.5439 205.362 19.5244L205.353 20.999C205.235 21.0446 205.079 21.0869 204.884 21.126C204.689 21.1715 204.441 21.1943 204.142 21.1943C203.771 21.1943 203.426 21.1064 203.107 20.9307C202.788 20.7549 202.53 20.4619 202.335 20.0518C202.14 19.6351 202.042 19.0752 202.042 18.3721V7.86426ZM208.678 10.4326V20.999H206.96V10.4326H208.678ZM206.862 7.62988C206.862 7.33691 206.943 7.08952 207.106 6.8877C207.269 6.68587 207.513 6.58496 207.839 6.58496C208.164 6.58496 208.408 6.68587 208.571 6.8877C208.74 7.08952 208.825 7.33691 208.825 7.62988C208.825 7.90983 208.74 8.15072 208.571 8.35254C208.408 8.54785 208.164 8.64551 207.839 8.64551C207.513 8.64551 207.269 8.54785 207.106 8.35254C206.943 8.15072 206.862 7.90983 206.862 7.62988ZM217.268 17.4053C217.268 17.0732 217.229 16.7803 217.151 16.5264C217.073 16.266 216.936 16.0316 216.741 15.8232C216.545 15.6149 216.272 15.4163 215.92 15.2275C215.569 15.0387 215.123 14.8467 214.582 14.6514C213.996 14.443 213.466 14.2119 212.991 13.958C212.515 13.6976 212.108 13.4014 211.77 13.0693C211.438 12.7373 211.181 12.3564 210.998 11.9268C210.816 11.4971 210.725 11.0055 210.725 10.4521C210.725 9.89876 210.819 9.3877 211.008 8.91895C211.203 8.4502 211.477 8.04329 211.828 7.69824C212.186 7.34668 212.616 7.07324 213.117 6.87793C213.619 6.68262 214.179 6.58496 214.797 6.58496C215.722 6.58496 216.5 6.79004 217.131 7.2002C217.769 7.60384 218.251 8.13444 218.576 8.79199C218.902 9.44303 219.065 10.1396 219.065 10.8818H217.268C217.268 10.348 217.18 9.87598 217.004 9.46582C216.835 9.04915 216.568 8.72363 216.203 8.48926C215.845 8.24837 215.377 8.12793 214.797 8.12793C214.276 8.12793 213.847 8.22884 213.508 8.43066C213.176 8.63249 212.929 8.90592 212.766 9.25098C212.61 9.59603 212.532 9.98991 212.532 10.4326C212.532 10.7321 212.584 11.0055 212.688 11.2529C212.792 11.4938 212.951 11.7184 213.166 11.9268C213.388 12.1351 213.661 12.3271 213.987 12.5029C214.319 12.6787 214.709 12.848 215.158 13.0107C215.855 13.2386 216.451 13.4925 216.946 13.7725C217.44 14.0524 217.844 14.3682 218.157 14.7197C218.469 15.0648 218.697 15.4587 218.84 15.9014C218.99 16.3376 219.065 16.8324 219.065 17.3857C219.065 17.9652 218.967 18.4893 218.772 18.958C218.583 19.4268 218.306 19.8271 217.942 20.1592C217.577 20.4912 217.138 20.7484 216.623 20.9307C216.109 21.1064 215.53 21.1943 214.885 21.1943C214.325 21.1943 213.775 21.1032 213.235 20.9209C212.701 20.7386 212.216 20.4652 211.78 20.1006C211.343 19.736 210.995 19.2868 210.735 18.7529C210.474 18.2126 210.344 17.5876 210.344 16.8779H212.141C212.141 17.3662 212.213 17.7861 212.356 18.1377C212.499 18.4827 212.698 18.7692 212.951 18.9971C213.205 19.2249 213.495 19.3942 213.821 19.5049C214.153 19.609 214.507 19.6611 214.885 19.6611C215.406 19.6611 215.842 19.57 216.194 19.3877C216.552 19.2054 216.819 18.945 216.994 18.6064C217.177 18.2679 217.268 17.8675 217.268 17.4053ZM222.439 10.4326V20.999H220.721V10.4326H222.439ZM220.623 7.62988C220.623 7.33691 220.704 7.08952 220.867 6.8877C221.03 6.68587 221.274 6.58496 221.6 6.58496C221.925 6.58496 222.169 6.68587 222.332 6.8877C222.501 7.08952 222.586 7.33691 222.586 7.62988C222.586 7.90983 222.501 8.15072 222.332 8.35254C222.169 8.54785 221.925 8.64551 221.6 8.64551C221.274 8.64551 221.03 8.54785 220.867 8.35254C220.704 8.15072 220.623 7.90983 220.623 7.62988ZM230.296 10.4326H231.849V21.0869C231.849 22.0179 231.686 22.7861 231.361 23.3916C231.042 23.9971 230.596 24.443 230.023 24.7295C229.45 25.0225 228.789 25.1689 228.041 25.1689C227.774 25.1689 227.438 25.1201 227.035 25.0225C226.631 24.9248 226.227 24.7751 225.824 24.5732C225.42 24.3779 225.088 24.1305 224.828 23.8311L225.541 22.6299C225.912 23.0075 226.306 23.2777 226.722 23.4404C227.139 23.6032 227.536 23.6846 227.914 23.6846C228.363 23.6846 228.753 23.6032 229.085 23.4404C229.417 23.2777 229.675 23.0107 229.857 22.6396C230.039 22.2751 230.13 21.7868 230.13 21.1748V12.7568L230.296 10.4326ZM224.222 16.2236V15.2373C224.222 14.3649 224.304 13.6162 224.466 12.9912C224.629 12.3597 224.863 11.8421 225.169 11.4385C225.482 11.0283 225.856 10.7256 226.292 10.5303C226.729 10.335 227.217 10.2373 227.757 10.2373C228.304 10.2373 228.776 10.348 229.173 10.5693C229.57 10.7907 229.899 11.113 230.16 11.5361C230.427 11.9528 230.635 12.4606 230.785 13.0596C230.941 13.652 231.048 14.3226 231.107 15.0713V16.3896C231.048 17.1318 230.941 17.7992 230.785 18.3916C230.635 18.984 230.423 19.4886 230.15 19.9053C229.883 20.3219 229.551 20.641 229.154 20.8623C228.757 21.0837 228.285 21.1943 227.738 21.1943C227.204 21.1943 226.722 21.0934 226.292 20.8916C225.863 20.6833 225.492 20.374 225.179 19.9639C224.873 19.5472 224.636 19.0296 224.466 18.4111C224.304 17.7861 224.222 17.057 224.222 16.2236ZM225.951 15.2373V16.2236C225.951 16.8096 225.993 17.3206 226.078 17.7568C226.162 18.1865 226.292 18.5446 226.468 18.8311C226.651 19.111 226.882 19.3193 227.162 19.4561C227.448 19.5928 227.79 19.6611 228.187 19.6611C228.669 19.6611 229.063 19.5439 229.369 19.3096C229.675 19.0752 229.919 18.766 230.101 18.3818C230.29 17.9912 230.44 17.5713 230.55 17.1221V14.3486C230.485 14.0166 230.391 13.6976 230.267 13.3916C230.15 13.0791 229.997 12.8024 229.808 12.5615C229.619 12.3141 229.391 12.1188 229.125 11.9756C228.864 11.8324 228.558 11.7607 228.207 11.7607C227.809 11.7607 227.468 11.8324 227.181 11.9756C226.895 12.1188 226.66 12.3337 226.478 12.6201C226.296 12.9066 226.162 13.2679 226.078 13.7041C225.993 14.1403 225.951 14.6514 225.951 15.2373ZM235.566 12.6885V20.999H233.837V10.4326H235.468L235.566 12.6885ZM235.146 15.3154L234.442 15.2861C234.436 14.5635 234.517 13.8962 234.687 13.2842C234.862 12.6657 235.11 12.1286 235.429 11.6729C235.754 11.2171 236.142 10.8656 236.591 10.6182C237.04 10.3643 237.538 10.2373 238.085 10.2373C238.515 10.2373 238.905 10.3089 239.257 10.4521C239.608 10.5889 239.908 10.8102 240.155 11.1162C240.403 11.4222 240.592 11.8193 240.722 12.3076C240.858 12.7894 240.927 13.3786 240.927 14.0752V20.999H239.198V14.0557C239.198 13.5023 239.136 13.0596 239.013 12.7275C238.896 12.389 238.713 12.1449 238.466 11.9951C238.225 11.8389 237.919 11.7607 237.548 11.7607C237.209 11.7607 236.894 11.8551 236.601 12.0439C236.308 12.2327 236.051 12.4932 235.829 12.8252C235.614 13.1572 235.445 13.5381 235.321 13.9678C235.204 14.391 235.146 14.8402 235.146 15.3154Z" fill="#D6D6D6"/>
<path d="M9.19233 20.798L9.24755 21.295L9.42186 21.2756L9.54588 21.1516L9.19233 20.798ZM3.53548 15.1412L3.18192 14.7876L3.0579 14.9116L3.03854 15.0859L3.53548 15.1412ZM2.82837 21.5051L2.33143 21.4499C2.31465 21.6009 2.36741 21.7513 2.47482 21.8587C2.58222 21.9661 2.73262 22.0188 2.88359 22.0021L2.82837 21.5051ZM11.1866 21.0051C10.9104 21.0051 10.6866 21.229 10.6866 21.5051C10.6866 21.7813 10.9104 22.0051 11.1866 22.0051V21.5051V21.0051ZM21.9203 22.0051C22.1964 22.0051 22.4203 21.7813 22.4203 21.5051C22.4203 21.229 22.1964 21.0051 21.9203 21.0051V21.5051V22.0051ZM19.0918 2.41324L18.7383 2.76679L21.5667 5.59522L21.9203 5.24166L22.2738 4.88811L19.4454 2.05968L19.0918 2.41324ZM21.9203 5.24166L21.5667 5.59522C22.1525 6.181 22.1525 7.13075 21.5667 7.71654L21.9203 8.07009L22.2738 8.42364C23.2501 7.44733 23.2501 5.86442 22.2738 4.88811L21.9203 5.24166ZM19.0918 2.41324L19.4454 2.05968C18.4691 1.08337 16.8862 1.08337 15.9098 2.05968L16.2634 2.41324L16.617 2.76679C17.2027 2.181 18.1525 2.181 18.7383 2.76679L19.0918 2.41324ZM9.19233 20.798L9.13712 20.3011L2.77315 21.0082L2.82837 21.5051L2.88359 22.0021L9.24755 21.295L9.19233 20.798ZM2.82837 21.5051L3.32531 21.5603L4.03242 15.1964L3.53548 15.1412L3.03854 15.0859L2.33143 21.4499L2.82837 21.5051ZM21.9203 8.07009L21.5667 7.71654L18.7383 10.545L19.0918 10.8985L19.4454 11.2521L22.2738 8.42364L21.9203 8.07009ZM19.0918 10.8985L18.7383 10.545L8.83878 20.4445L9.19233 20.798L9.54588 21.1516L19.4454 11.2521L19.0918 10.8985ZM3.53548 15.1412L3.88903 15.4947L13.7885 5.59522L13.435 5.24166L13.0814 4.88811L3.18192 14.7876L3.53548 15.1412ZM13.435 5.24166L13.7885 5.59522L16.617 2.76679L16.2634 2.41324L15.9098 2.05968L13.0814 4.88811L13.435 5.24166ZM13.435 5.24166L13.0814 5.59522L18.7383 11.2521L19.0918 10.8985L19.4454 10.545L13.7885 4.88811L13.435 5.24166ZM9.19233 20.798L9.54588 20.4445L3.88903 14.7876L3.53548 15.1412L3.18192 15.4947L8.83878 21.1516L9.19233 20.798ZM11.1866 21.5051V22.0051L21.9203 22.0051V21.5051V21.0051L11.1866 21.0051V21.5051Z" fill="#D6D6D6"/>
<path d="M339.842 22.999H337.42L337.44 21.4658H339.842C340.695 21.4658 341.389 21.3031 341.922 20.9775C342.456 20.6455 342.85 20.1572 343.104 19.5127C343.358 18.8617 343.485 18.0576 343.485 17.1006V14.6689C343.485 13.9137 343.413 13.2627 343.27 12.7158C343.127 12.1689 342.912 11.7197 342.625 11.3682C342.339 11.0166 341.978 10.7562 341.542 10.5869C341.105 10.4111 340.594 10.3232 340.008 10.3232H337.372V8.78027H340.008C340.809 8.78027 341.532 8.90723 342.176 9.16113C342.821 9.40853 343.374 9.78288 343.836 10.2842C344.299 10.779 344.65 11.3942 344.891 12.1299C345.139 12.8656 345.262 13.7184 345.262 14.6885V17.1006C345.262 18.0706 345.139 18.9235 344.891 19.6592C344.65 20.3949 344.295 21.0101 343.827 21.5049C343.358 21.9997 342.788 22.374 342.118 22.6279C341.454 22.8753 340.695 22.999 339.842 22.999ZM338.417 8.78027V22.999H336.62V8.78027H338.417ZM352.387 21.1924V15.46C352.387 15.0433 352.322 14.708 352.192 14.4541C352.068 14.2002 351.879 14.0146 351.625 13.8975C351.378 13.7803 351.065 13.7217 350.688 13.7217C350.323 13.7217 350.007 13.7965 349.74 13.9463C349.48 14.096 349.278 14.2946 349.135 14.542C348.998 14.7894 348.93 15.0628 348.93 15.3623H347.201C347.201 14.9847 347.283 14.6104 347.445 14.2393C347.615 13.8682 347.856 13.5329 348.168 13.2334C348.481 12.9274 348.855 12.6865 349.291 12.5107C349.734 12.3285 350.229 12.2373 350.775 12.2373C351.427 12.2373 352.003 12.3447 352.504 12.5596C353.005 12.7679 353.399 13.1097 353.686 13.585C353.972 14.0602 354.115 14.6917 354.115 15.4795V20.6943C354.115 21.0459 354.141 21.4202 354.193 21.8174C354.252 22.2145 354.333 22.5563 354.438 22.8428V22.999H352.65C352.566 22.7907 352.501 22.514 352.455 22.1689C352.41 21.8174 352.387 21.4919 352.387 21.1924ZM352.66 16.5928L352.68 17.8623H351.479C351.068 17.8623 350.694 17.9079 350.356 17.999C350.024 18.0902 349.737 18.2236 349.496 18.3994C349.255 18.5687 349.07 18.7803 348.94 19.0342C348.816 19.2881 348.754 19.5778 348.754 19.9033C348.754 20.3265 348.813 20.665 348.93 20.9189C349.047 21.1663 349.223 21.3454 349.457 21.4561C349.692 21.5667 349.988 21.6221 350.346 21.6221C350.782 21.6221 351.166 21.5212 351.498 21.3193C351.83 21.1175 352.087 20.8734 352.27 20.5869C352.458 20.3005 352.546 20.0335 352.533 19.7861L352.914 20.5967C352.888 20.8506 352.803 21.1273 352.66 21.4268C352.524 21.7197 352.331 22.0029 352.084 22.2764C351.837 22.5433 351.544 22.7646 351.205 22.9404C350.873 23.1097 350.499 23.1943 350.082 23.1943C349.47 23.1943 348.933 23.0771 348.471 22.8428C348.015 22.6084 347.66 22.2633 347.406 21.8076C347.152 21.3519 347.025 20.7887 347.025 20.1182C347.025 19.6104 347.113 19.1416 347.289 18.7119C347.465 18.2822 347.725 17.9111 348.07 17.5986C348.415 17.2796 348.848 17.0322 349.369 16.8564C349.897 16.6807 350.505 16.5928 351.195 16.5928H352.66ZM360.058 12.4326V13.8193H355.127V12.4326H360.058ZM356.738 9.86426H358.467V20.3818C358.467 20.7399 358.509 21.0101 358.593 21.1924C358.685 21.3747 358.799 21.4951 358.935 21.5537C359.072 21.6123 359.218 21.6416 359.375 21.6416C359.492 21.6416 359.622 21.6286 359.765 21.6025C359.909 21.57 360.006 21.5439 360.058 21.5244L360.049 22.999C359.931 23.0446 359.775 23.0869 359.58 23.126C359.384 23.1715 359.137 23.1943 358.838 23.1943C358.467 23.1943 358.121 23.1064 357.802 22.9307C357.483 22.7549 357.226 22.4619 357.031 22.0518C356.836 21.6351 356.738 21.0752 356.738 20.3721V9.86426ZM360.962 18.2236V17.2178C360.962 16.3975 361.066 15.6781 361.275 15.0596C361.483 14.4346 361.773 13.9137 362.144 13.4971C362.515 13.0804 362.948 12.7679 363.443 12.5596C363.937 12.3447 364.468 12.2373 365.034 12.2373C365.614 12.2373 366.151 12.3447 366.646 12.5596C367.141 12.7679 367.574 13.0804 367.945 13.4971C368.322 13.9137 368.615 14.4346 368.824 15.0596C369.032 15.6781 369.136 16.3975 369.136 17.2178V18.2236C369.136 19.0439 369.032 19.7666 368.824 20.3916C368.615 21.0101 368.325 21.5277 367.954 21.9443C367.583 22.361 367.15 22.6735 366.656 22.8818C366.161 23.0902 365.627 23.1943 365.054 23.1943C364.481 23.1943 363.947 23.0902 363.452 22.8818C362.958 22.6735 362.521 22.361 362.144 21.9443C361.773 21.5277 361.483 21.0101 361.275 20.3916C361.066 19.7666 360.962 19.0439 360.962 18.2236ZM362.691 17.2178V18.2236C362.691 18.8031 362.749 19.3109 362.867 19.7471C362.984 20.1833 363.15 20.5479 363.365 20.8408C363.579 21.1338 363.83 21.3551 364.117 21.5049C364.403 21.6481 364.715 21.7197 365.054 21.7197C365.445 21.7197 365.786 21.6481 366.079 21.5049C366.379 21.3551 366.626 21.1338 366.822 20.8408C367.017 20.5479 367.163 20.1833 367.261 19.7471C367.359 19.3109 367.408 18.8031 367.408 18.2236V17.2178C367.408 16.6383 367.349 16.1338 367.232 15.7041C367.115 15.2679 366.949 14.9033 366.734 14.6104C366.519 14.3109 366.265 14.0895 365.972 13.9463C365.686 13.7965 365.373 13.7217 365.034 13.7217C364.702 13.7217 364.393 13.7965 364.107 13.9463C363.82 14.0895 363.57 14.3109 363.355 14.6104C363.146 14.9033 362.984 15.2679 362.867 15.7041C362.749 16.1338 362.691 16.6383 362.691 17.2178ZM375.89 20.2939C375.89 20.027 375.824 19.7926 375.694 19.5908C375.564 19.389 375.349 19.1937 375.05 19.0049C374.757 18.8161 374.36 18.6143 373.858 18.3994C373.37 18.1976 372.931 17.999 372.54 17.8037C372.156 17.6019 371.83 17.3838 371.563 17.1494C371.296 16.915 371.091 16.6449 370.948 16.3389C370.811 16.0264 370.743 15.6585 370.743 15.2354C370.743 14.8122 370.821 14.4215 370.977 14.0635C371.14 13.6989 371.368 13.3799 371.661 13.1064C371.954 12.833 372.306 12.6214 372.716 12.4717C373.126 12.3154 373.585 12.2373 374.093 12.2373C374.815 12.2373 375.431 12.3773 375.938 12.6572C376.446 12.9372 376.834 13.3213 377.1 13.8096C377.374 14.2913 377.511 14.835 377.511 15.4404H375.792C375.792 15.1475 375.727 14.8708 375.597 14.6104C375.466 14.3499 375.274 14.1383 375.02 13.9756C374.767 13.8063 374.457 13.7217 374.093 13.7217C373.709 13.7217 373.396 13.79 373.155 13.9268C372.914 14.0635 372.739 14.2425 372.628 14.4639C372.524 14.6787 372.472 14.9163 372.472 15.1768C372.472 15.3721 372.498 15.5413 372.55 15.6846C372.608 15.8213 372.706 15.9515 372.843 16.0752C372.979 16.1924 373.165 16.3161 373.399 16.4463C373.64 16.57 373.946 16.7132 374.317 16.876C375.033 17.1559 375.636 17.4391 376.124 17.7256C376.612 18.012 376.983 18.3473 377.237 18.7314C377.491 19.1156 377.618 19.5908 377.618 20.1572C377.618 20.6195 377.533 21.0394 377.364 21.417C377.201 21.7881 376.967 22.1071 376.661 22.374C376.355 22.641 375.987 22.846 375.558 22.9893C375.134 23.126 374.659 23.1943 374.132 23.1943C373.337 23.1943 372.664 23.0381 372.11 22.7256C371.563 22.4066 371.147 21.9932 370.86 21.4854C370.58 20.971 370.44 20.4209 370.44 19.835H372.169C372.188 20.3298 372.299 20.7139 372.501 20.9873C372.709 21.2607 372.96 21.4495 373.253 21.5537C373.546 21.6579 373.839 21.71 374.132 21.71C374.516 21.71 374.838 21.6546 375.099 21.5439C375.359 21.4268 375.554 21.2607 375.684 21.0459C375.821 20.8311 375.89 20.5804 375.89 20.2939ZM385.002 14.4639V27.0615H383.274V12.4326H384.846L385.002 14.4639ZM390.91 17.2373V18.2236C390.91 19.057 390.832 19.7861 390.676 20.4111C390.526 21.0296 390.302 21.5472 390.002 21.9639C389.709 22.374 389.348 22.6833 388.918 22.8916C388.488 23.0934 387.997 23.1943 387.443 23.1943C386.89 23.1943 386.408 23.0902 385.998 22.8818C385.595 22.667 385.253 22.3577 384.973 21.9541C384.699 21.5505 384.481 21.0654 384.318 20.499C384.162 19.9261 384.055 19.2848 383.996 18.5752V17.0713C384.055 16.3226 384.162 15.652 384.318 15.0596C384.475 14.4606 384.69 13.9528 384.963 13.5361C385.243 13.113 385.585 12.7907 385.988 12.5693C386.399 12.348 386.877 12.2373 387.424 12.2373C387.99 12.2373 388.488 12.335 388.918 12.5303C389.354 12.7256 389.719 13.0283 390.012 13.4385C390.311 13.8421 390.536 14.3597 390.686 14.9912C390.835 15.6162 390.91 16.3649 390.91 17.2373ZM389.182 18.2236V17.2373C389.182 16.6514 389.136 16.1403 389.045 15.7041C388.96 15.2679 388.824 14.9066 388.635 14.6201C388.446 14.3337 388.208 14.1188 387.922 13.9756C387.636 13.8324 387.29 13.7607 386.887 13.7607C386.542 13.7607 386.236 13.8324 385.969 13.9756C385.708 14.1188 385.484 14.3141 385.295 14.5615C385.106 14.8024 384.95 15.0791 384.826 15.3916C384.703 15.6976 384.611 16.0166 384.553 16.3486V19.3076C384.664 19.7243 384.81 20.1182 384.992 20.4893C385.175 20.8538 385.419 21.1501 385.725 21.3779C386.037 21.6058 386.431 21.7197 386.906 21.7197C387.303 21.7197 387.645 21.6481 387.932 21.5049C388.218 21.3617 388.453 21.1468 388.635 20.8604C388.824 20.5674 388.96 20.2028 389.045 19.7666C389.136 19.3239 389.182 18.8096 389.182 18.2236ZM394.265 14.0928V22.999H392.537V12.4326H394.207L394.265 14.0928ZM396.892 12.374L396.902 14.0537C396.759 14.0212 396.629 14.0016 396.511 13.9951C396.401 13.9821 396.271 13.9756 396.121 13.9756C395.795 13.9756 395.509 14.0407 395.261 14.1709C395.021 14.3011 394.812 14.4834 394.636 14.7178C394.461 14.9521 394.321 15.2321 394.217 15.5576C394.112 15.8766 394.041 16.2282 394.002 16.6123L393.552 16.9053C393.552 16.2673 393.601 15.6683 393.699 15.1084C393.803 14.5485 393.963 14.0537 394.177 13.624C394.392 13.1878 394.666 12.8493 394.998 12.6084C395.336 12.361 395.74 12.2373 396.209 12.2373C396.313 12.2373 396.44 12.2536 396.59 12.2861C396.746 12.3122 396.847 12.3415 396.892 12.374ZM397.474 18.2236V17.2178C397.474 16.3975 397.578 15.6781 397.786 15.0596C397.995 14.4346 398.284 13.9137 398.656 13.4971C399.027 13.0804 399.46 12.7679 399.954 12.5596C400.449 12.3447 400.98 12.2373 401.546 12.2373C402.126 12.2373 402.663 12.3447 403.158 12.5596C403.652 12.7679 404.085 13.0804 404.456 13.4971C404.834 13.9137 405.127 14.4346 405.335 15.0596C405.544 15.6781 405.648 16.3975 405.648 17.2178V18.2236C405.648 19.0439 405.544 19.7666 405.335 20.3916C405.127 21.0101 404.837 21.5277 404.466 21.9443C404.095 22.361 403.662 22.6735 403.167 22.8818C402.672 23.0902 402.139 23.1943 401.566 23.1943C400.993 23.1943 400.459 23.0902 399.964 22.8818C399.469 22.6735 399.033 22.361 398.656 21.9443C398.284 21.5277 397.995 21.0101 397.786 20.3916C397.578 19.7666 397.474 19.0439 397.474 18.2236ZM399.202 17.2178V18.2236C399.202 18.8031 399.261 19.3109 399.378 19.7471C399.495 20.1833 399.661 20.5479 399.876 20.8408C400.091 21.1338 400.342 21.3551 400.628 21.5049C400.915 21.6481 401.227 21.7197 401.566 21.7197C401.956 21.7197 402.298 21.6481 402.591 21.5049C402.891 21.3551 403.138 21.1338 403.333 20.8408C403.529 20.5479 403.675 20.1833 403.773 19.7471C403.87 19.3109 403.919 18.8031 403.919 18.2236V17.2178C403.919 16.6383 403.861 16.1338 403.743 15.7041C403.626 15.2679 403.46 14.9033 403.245 14.6104C403.031 14.3109 402.777 14.0895 402.484 13.9463C402.197 13.7965 401.885 13.7217 401.546 13.7217C401.214 13.7217 400.905 13.7965 400.618 13.9463C400.332 14.0895 400.081 14.3109 399.867 14.6104C399.658 14.9033 399.495 15.2679 399.378 15.7041C399.261 16.1338 399.202 16.6383 399.202 17.2178ZM411.132 12.4326V13.8193H406.2V12.4326H411.132ZM407.811 9.86426H409.54V20.3818C409.54 20.7399 409.582 21.0101 409.667 21.1924C409.758 21.3747 409.872 21.4951 410.009 21.5537C410.145 21.6123 410.292 21.6416 410.448 21.6416C410.565 21.6416 410.696 21.6286 410.839 21.6025C410.982 21.57 411.08 21.5439 411.132 21.5244L411.122 22.999C411.005 23.0446 410.849 23.0869 410.653 23.126C410.458 23.1715 410.211 23.1943 409.911 23.1943C409.54 23.1943 409.195 23.1064 408.876 22.9307C408.557 22.7549 408.3 22.4619 408.104 22.0518C407.909 21.6351 407.811 21.0752 407.811 20.3721V9.86426ZM416.372 23.1943C415.74 23.1943 415.17 23.0999 414.663 22.9111C414.155 22.7223 413.722 22.4359 413.364 22.0518C413.006 21.6611 412.732 21.1696 412.543 20.5771C412.355 19.9847 412.26 19.2848 412.26 18.4775V17.2861C412.26 16.3551 412.368 15.5674 412.583 14.9229C412.804 14.2783 413.1 13.7607 413.471 13.3701C413.842 12.973 414.262 12.6865 414.731 12.5107C415.2 12.3285 415.681 12.2373 416.176 12.2373C416.84 12.2373 417.407 12.3447 417.875 12.5596C418.344 12.7744 418.725 13.0934 419.018 13.5166C419.311 13.9398 419.526 14.4606 419.663 15.0791C419.806 15.6976 419.877 16.4105 419.877 17.2178V18.2236H413.276V16.749H418.149V16.5049C418.123 15.958 418.048 15.4762 417.924 15.0596C417.807 14.6429 417.612 14.3174 417.338 14.083C417.065 13.8421 416.678 13.7217 416.176 13.7217C415.857 13.7217 415.561 13.777 415.288 13.8877C415.021 13.9919 414.79 14.1774 414.594 14.4443C414.405 14.7048 414.256 15.0661 414.145 15.5283C414.041 15.9906 413.989 16.5765 413.989 17.2861V18.4775C413.989 19.0439 414.041 19.5322 414.145 19.9424C414.256 20.346 414.415 20.6813 414.624 20.9482C414.838 21.2087 415.099 21.404 415.405 21.5342C415.717 21.6579 416.072 21.7197 416.469 21.7197C417.049 21.7197 417.527 21.609 417.905 21.3877C418.282 21.1598 418.611 20.8701 418.891 20.5186L419.799 21.6025C419.611 21.8695 419.363 22.1266 419.057 22.374C418.758 22.6149 418.387 22.8135 417.944 22.9697C417.508 23.1195 416.984 23.1943 416.372 23.1943ZM427.09 12.4326H428.643V23.0869C428.643 24.0179 428.48 24.7861 428.154 25.3916C427.835 25.9971 427.389 26.443 426.817 26.7295C426.244 27.0225 425.583 27.1689 424.834 27.1689C424.567 27.1689 424.232 27.1201 423.828 27.0225C423.425 26.9248 423.021 26.7751 422.617 26.5732C422.214 26.3779 421.882 26.1305 421.621 25.8311L422.334 24.6299C422.705 25.0075 423.099 25.2777 423.516 25.4404C423.932 25.6032 424.33 25.6846 424.707 25.6846C425.156 25.6846 425.547 25.6032 425.879 25.4404C426.211 25.2777 426.468 25.0107 426.65 24.6396C426.833 24.2751 426.924 23.7868 426.924 23.1748V14.7568L427.09 12.4326ZM421.016 18.2236V17.2373C421.016 16.3649 421.097 15.6162 421.26 14.9912C421.423 14.3597 421.657 13.8421 421.963 13.4385C422.275 13.0283 422.65 12.7256 423.086 12.5303C423.522 12.335 424.011 12.2373 424.551 12.2373C425.098 12.2373 425.57 12.348 425.967 12.5693C426.364 12.7907 426.693 13.113 426.953 13.5361C427.22 13.9528 427.428 14.4606 427.578 15.0596C427.734 15.652 427.842 16.3226 427.9 17.0713V18.3896C427.842 19.1318 427.734 19.7992 427.578 20.3916C427.428 20.984 427.217 21.4886 426.943 21.9053C426.677 22.3219 426.345 22.641 425.947 22.8623C425.55 23.0837 425.078 23.1943 424.531 23.1943C423.997 23.1943 423.516 23.0934 423.086 22.8916C422.656 22.6833 422.285 22.374 421.973 21.9639C421.667 21.5472 421.429 21.0296 421.26 20.4111C421.097 19.7861 421.016 19.057 421.016 18.2236ZM422.744 17.2373V18.2236C422.744 18.8096 422.787 19.3206 422.871 19.7568C422.956 20.1865 423.086 20.5446 423.262 20.8311C423.444 21.111 423.675 21.3193 423.955 21.4561C424.242 21.5928 424.583 21.6611 424.981 21.6611C425.462 21.6611 425.856 21.5439 426.162 21.3096C426.468 21.0752 426.712 20.766 426.895 20.3818C427.083 19.9912 427.233 19.5713 427.344 19.1221V16.3486C427.279 16.0166 427.184 15.6976 427.061 15.3916C426.943 15.0791 426.79 14.8024 426.602 14.5615C426.413 14.3141 426.185 14.1188 425.918 13.9756C425.658 13.8324 425.352 13.7607 425 13.7607C424.603 13.7607 424.261 13.8324 423.975 13.9756C423.688 14.1188 423.454 14.3337 423.272 14.6201C423.089 14.9066 422.956 15.2679 422.871 15.7041C422.787 16.1403 422.744 16.6514 422.744 17.2373ZM432.486 12.4326V22.999H430.767V12.4326H432.486ZM430.67 9.62988C430.67 9.33691 430.751 9.08952 430.914 8.8877C431.077 8.68587 431.321 8.58496 431.646 8.58496C431.972 8.58496 432.216 8.68587 432.379 8.8877C432.548 9.08952 432.633 9.33691 432.633 9.62988C432.633 9.90983 432.548 10.1507 432.379 10.3525C432.216 10.5479 431.972 10.6455 431.646 10.6455C431.321 10.6455 431.077 10.5479 430.914 10.3525C430.751 10.1507 430.67 9.90983 430.67 9.62988ZM440.158 20.9482V7.99902H441.876V22.999H440.304L440.158 20.9482ZM434.249 18.2236V17.2373C434.249 16.3649 434.334 15.6162 434.503 14.9912C434.672 14.3597 434.913 13.8421 435.226 13.4385C435.538 13.0283 435.913 12.7256 436.349 12.5303C436.785 12.335 437.267 12.2373 437.794 12.2373C438.341 12.2373 438.81 12.348 439.2 12.5693C439.598 12.7907 439.93 13.113 440.197 13.5361C440.464 13.9528 440.672 14.4606 440.822 15.0596C440.978 15.652 441.082 16.3226 441.134 17.0713V18.3896C441.075 19.1318 440.968 19.7992 440.812 20.3916C440.662 20.984 440.454 21.4886 440.187 21.9053C439.92 22.3219 439.588 22.641 439.191 22.8623C438.794 23.0837 438.322 23.1943 437.775 23.1943C437.254 23.1943 436.779 23.0934 436.349 22.8916C435.919 22.6833 435.545 22.374 435.226 21.9639C434.913 21.5472 434.672 21.0296 434.503 20.4111C434.334 19.7861 434.249 19.057 434.249 18.2236ZM435.978 17.2373V18.2236C435.978 18.8096 436.02 19.3206 436.105 19.7568C436.189 20.1865 436.323 20.5446 436.505 20.8311C436.687 21.111 436.919 21.3193 437.199 21.4561C437.485 21.5928 437.827 21.6611 438.224 21.6611C438.706 21.6611 439.1 21.5439 439.406 21.3096C439.712 21.0752 439.956 20.766 440.138 20.3818C440.327 19.9912 440.477 19.5713 440.587 19.1221V16.3486C440.522 16.0166 440.428 15.6976 440.304 15.3916C440.18 15.0791 440.024 14.8024 439.835 14.5615C439.653 14.3141 439.428 14.1188 439.161 13.9756C438.901 13.8324 438.595 13.7607 438.243 13.7607C437.846 13.7607 437.501 13.8324 437.208 13.9756C436.922 14.1188 436.687 14.3337 436.505 14.6201C436.329 14.9066 436.196 15.2679 436.105 15.7041C436.02 16.1403 435.978 16.6514 435.978 17.2373ZM443.581 18.2236V17.2178C443.581 16.3975 443.685 15.6781 443.893 15.0596C444.102 14.4346 444.392 13.9137 444.763 13.4971C445.134 13.0804 445.567 12.7679 446.061 12.5596C446.556 12.3447 447.087 12.2373 447.653 12.2373C448.233 12.2373 448.77 12.3447 449.265 12.5596C449.759 12.7679 450.192 13.0804 450.563 13.4971C450.941 13.9137 451.234 14.4346 451.442 15.0596C451.651 15.6781 451.755 16.3975 451.755 17.2178V18.2236C451.755 19.0439 451.651 19.7666 451.442 20.3916C451.234 21.0101 450.944 21.5277 450.573 21.9443C450.202 22.361 449.769 22.6735 449.274 22.8818C448.78 23.0902 448.246 23.1943 447.673 23.1943C447.1 23.1943 446.566 23.0902 446.071 22.8818C445.576 22.6735 445.14 22.361 444.763 21.9443C444.392 21.5277 444.102 21.0101 443.893 20.3916C443.685 19.7666 443.581 19.0439 443.581 18.2236ZM445.309 17.2178V18.2236C445.309 18.8031 445.368 19.3109 445.485 19.7471C445.602 20.1833 445.768 20.5479 445.983 20.8408C446.198 21.1338 446.449 21.3551 446.735 21.5049C447.022 21.6481 447.334 21.7197 447.673 21.7197C448.063 21.7197 448.405 21.6481 448.698 21.5049C448.998 21.3551 449.245 21.1338 449.44 20.8408C449.636 20.5479 449.782 20.1833 449.88 19.7471C449.977 19.3109 450.026 18.8031 450.026 18.2236V17.2178C450.026 16.6383 449.968 16.1338 449.85 15.7041C449.733 15.2679 449.567 14.9033 449.352 14.6104C449.138 14.3109 448.884 14.0895 448.591 13.9463C448.304 13.7965 447.992 13.7217 447.653 13.7217C447.321 13.7217 447.012 13.7965 446.725 13.9463C446.439 14.0895 446.188 14.3109 445.974 14.6104C445.765 14.9033 445.602 15.2679 445.485 15.7041C445.368 16.1338 445.309 16.6383 445.309 17.2178ZM458.508 20.2939C458.508 20.027 458.443 19.7926 458.313 19.5908C458.183 19.389 457.968 19.1937 457.668 19.0049C457.375 18.8161 456.978 18.6143 456.477 18.3994C455.989 18.1976 455.549 17.999 455.159 17.8037C454.775 17.6019 454.449 17.3838 454.182 17.1494C453.915 16.915 453.71 16.6449 453.567 16.3389C453.43 16.0264 453.362 15.6585 453.362 15.2354C453.362 14.8122 453.44 14.4215 453.596 14.0635C453.759 13.6989 453.987 13.3799 454.28 13.1064C454.573 12.833 454.924 12.6214 455.334 12.4717C455.745 12.3154 456.204 12.2373 456.711 12.2373C457.434 12.2373 458.049 12.3773 458.557 12.6572C459.065 12.9372 459.452 13.3213 459.719 13.8096C459.993 14.2913 460.129 14.835 460.129 15.4404H458.411C458.411 15.1475 458.346 14.8708 458.215 14.6104C458.085 14.3499 457.893 14.1383 457.639 13.9756C457.385 13.8063 457.076 13.7217 456.711 13.7217C456.327 13.7217 456.015 13.79 455.774 13.9268C455.533 14.0635 455.357 14.2425 455.247 14.4639C455.142 14.6787 455.09 14.9163 455.09 15.1768C455.09 15.3721 455.116 15.5413 455.168 15.6846C455.227 15.8213 455.325 15.9515 455.461 16.0752C455.598 16.1924 455.784 16.3161 456.018 16.4463C456.259 16.57 456.565 16.7132 456.936 16.876C457.652 17.1559 458.254 17.4391 458.743 17.7256C459.231 18.012 459.602 18.3473 459.856 18.7314C460.11 19.1156 460.237 19.5908 460.237 20.1572C460.237 20.6195 460.152 21.0394 459.983 21.417C459.82 21.7881 459.586 22.1071 459.28 22.374C458.974 22.641 458.606 22.846 458.176 22.9893C457.753 23.126 457.278 23.1943 456.75 23.1943C455.956 23.1943 455.282 23.0381 454.729 22.7256C454.182 22.4066 453.765 21.9932 453.479 21.4854C453.199 20.971 453.059 20.4209 453.059 19.835H454.788C454.807 20.3298 454.918 20.7139 455.12 20.9873C455.328 21.2607 455.579 21.4495 455.872 21.5537C456.165 21.6579 456.458 21.71 456.75 21.71C457.135 21.71 457.457 21.6546 457.717 21.5439C457.978 21.4268 458.173 21.2607 458.303 21.0459C458.44 20.8311 458.508 20.5804 458.508 20.2939Z" fill="#D6D6D6"/>
<path d="M309.069 14.999L312.319 18.499L319.569 10.999M304.069 6.99902C304.069 6.99902 303.839 18.7691 305.069 19.999C309.569 24.499 313.069 26.999 314.569 26.999C316.069 26.999 319.069 24.999 324.069 19.999C325.299 18.7691 325.069 6.99902 325.069 6.99902C319.401 6.51521 314.569 2.99902 314.569 2.99902C314.569 2.99902 309.737 6.51521 304.069 6.99902Z" stroke="#D6D6D6" stroke-linecap="round" stroke-linejoin="round"/>
<path d="M566.062 9.21387H570.037C570.961 9.21387 571.736 9.37663 572.361 9.70215C572.992 10.0277 573.468 10.5094 573.787 11.1475C574.112 11.779 574.275 12.557 574.275 13.4814C574.275 14.1325 574.167 14.7282 573.953 15.2686C573.738 15.8024 573.425 16.2581 573.015 16.6357C572.605 17.0068 572.107 17.2835 571.521 17.4658L571.033 17.6709H567.488L567.468 16.1377H570.017C570.564 16.1377 571.02 16.0205 571.384 15.7861C571.749 15.5452 572.022 15.223 572.205 14.8193C572.387 14.4157 572.478 13.9697 572.478 13.4814C572.478 12.9346 572.397 12.4561 572.234 12.0459C572.071 11.6357 571.811 11.32 571.453 11.0986C571.101 10.8708 570.629 10.7568 570.037 10.7568H567.859V23.4326H566.062V9.21387ZM572.888 23.4326L570.056 16.9873L571.921 16.9775L574.812 23.3154V23.4326H572.888ZM579.622 23.6279C578.991 23.6279 578.421 23.5335 577.913 23.3447C577.405 23.1559 576.972 22.8695 576.614 22.4854C576.256 22.0947 575.983 21.6032 575.794 21.0107C575.605 20.4183 575.511 19.7184 575.511 18.9111V17.7197C575.511 16.7887 575.618 16.001 575.833 15.3564C576.054 14.7119 576.351 14.1943 576.722 13.8037C577.093 13.4066 577.513 13.1201 577.982 12.9443C578.45 12.762 578.932 12.6709 579.427 12.6709C580.091 12.6709 580.657 12.7783 581.126 12.9932C581.595 13.208 581.976 13.527 582.269 13.9502C582.562 14.3734 582.776 14.8942 582.913 15.5127C583.056 16.1312 583.128 16.8441 583.128 17.6514V18.6572H576.526V17.1826H581.4V16.9385C581.373 16.3916 581.299 15.9098 581.175 15.4932C581.058 15.0765 580.862 14.751 580.589 14.5166C580.316 14.2757 579.928 14.1553 579.427 14.1553C579.108 14.1553 578.812 14.2106 578.538 14.3213C578.271 14.4255 578.04 14.611 577.845 14.8779C577.656 15.1383 577.506 15.4997 577.396 15.9619C577.291 16.4242 577.239 17.0101 577.239 17.7197V18.9111C577.239 19.4775 577.291 19.9658 577.396 20.376C577.506 20.7796 577.666 21.1149 577.874 21.3818C578.089 21.6423 578.349 21.8376 578.655 21.9678C578.968 22.0915 579.323 22.1533 579.72 22.1533C580.299 22.1533 580.778 22.0426 581.155 21.8213C581.533 21.5934 581.862 21.3037 582.142 20.9521L583.05 22.0361C582.861 22.3031 582.614 22.5602 582.308 22.8076C582.008 23.0485 581.637 23.2471 581.194 23.4033C580.758 23.5531 580.234 23.6279 579.622 23.6279ZM589.745 20.7275C589.745 20.4606 589.68 20.2262 589.55 20.0244C589.419 19.8226 589.204 19.6273 588.905 19.4385C588.612 19.2497 588.215 19.0479 587.714 18.833C587.225 18.6312 586.786 18.4326 586.395 18.2373C586.011 18.0355 585.686 17.8174 585.419 17.583C585.152 17.3486 584.947 17.0785 584.803 16.7725C584.667 16.46 584.598 16.0921 584.598 15.6689C584.598 15.2458 584.676 14.8551 584.833 14.4971C584.995 14.1325 585.223 13.8135 585.516 13.54C585.809 13.2666 586.161 13.055 586.571 12.9053C586.981 12.749 587.44 12.6709 587.948 12.6709C588.671 12.6709 589.286 12.8109 589.794 13.0908C590.301 13.3708 590.689 13.7549 590.956 14.2432C591.229 14.7249 591.366 15.2686 591.366 15.874H589.647C589.647 15.5811 589.582 15.3044 589.452 15.0439C589.322 14.7835 589.13 14.5719 588.876 14.4092C588.622 14.2399 588.313 14.1553 587.948 14.1553C587.564 14.1553 587.251 14.2236 587.01 14.3604C586.77 14.4971 586.594 14.6761 586.483 14.8975C586.379 15.1123 586.327 15.3499 586.327 15.6104C586.327 15.8057 586.353 15.9749 586.405 16.1182C586.464 16.2549 586.561 16.3851 586.698 16.5088C586.835 16.626 587.02 16.7497 587.255 16.8799C587.495 17.0036 587.801 17.1468 588.173 17.3096C588.889 17.5895 589.491 17.8727 589.979 18.1592C590.467 18.4456 590.839 18.7809 591.092 19.165C591.346 19.5492 591.473 20.0244 591.473 20.5908C591.473 21.0531 591.389 21.473 591.219 21.8506C591.057 22.2217 590.822 22.5407 590.516 22.8076C590.21 23.0745 589.842 23.2796 589.413 23.4229C588.99 23.5596 588.514 23.6279 587.987 23.6279C587.193 23.6279 586.519 23.4717 585.966 23.1592C585.419 22.8402 585.002 22.4268 584.716 21.9189C584.436 21.4046 584.296 20.8545 584.296 20.2686H586.024C586.044 20.7633 586.154 21.1475 586.356 21.4209C586.564 21.6943 586.815 21.8831 587.108 21.9873C587.401 22.0915 587.694 22.1436 587.987 22.1436C588.371 22.1436 588.693 22.0882 588.954 21.9775C589.214 21.8604 589.41 21.6943 589.54 21.4795C589.676 21.2646 589.745 21.014 589.745 20.7275ZM594.867 14.8975V27.4951H593.139V12.8662H594.711L594.867 14.8975ZM600.776 17.6709V18.6572C600.776 19.4906 600.698 20.2197 600.541 20.8447C600.392 21.4632 600.167 21.9808 599.867 22.3975C599.575 22.8076 599.213 23.1169 598.783 23.3252C598.354 23.527 597.862 23.6279 597.309 23.6279C596.756 23.6279 596.274 23.5238 595.864 23.3154C595.46 23.1006 595.118 22.7913 594.838 22.3877C594.565 21.984 594.347 21.499 594.184 20.9326C594.028 20.3597 593.92 19.7184 593.862 19.0088V17.5049C593.92 16.7562 594.028 16.0856 594.184 15.4932C594.34 14.8942 594.555 14.3864 594.828 13.9697C595.108 13.5465 595.45 13.2243 595.854 13.0029C596.264 12.7816 596.742 12.6709 597.289 12.6709C597.856 12.6709 598.354 12.7686 598.783 12.9639C599.22 13.1592 599.584 13.4619 599.877 13.8721C600.177 14.2757 600.401 14.7933 600.551 15.4248C600.701 16.0498 600.776 16.7985 600.776 17.6709ZM599.047 18.6572V17.6709C599.047 17.085 599.002 16.5739 598.91 16.1377C598.826 15.7015 598.689 15.3402 598.5 15.0537C598.311 14.7673 598.074 14.5524 597.787 14.4092C597.501 14.266 597.156 14.1943 596.752 14.1943C596.407 14.1943 596.101 14.266 595.834 14.4092C595.574 14.5524 595.349 14.7477 595.16 14.9951C594.972 15.236 594.815 15.5127 594.692 15.8252C594.568 16.1312 594.477 16.4502 594.418 16.7822V19.7412C594.529 20.1579 594.675 20.5518 594.858 20.9229C595.04 21.2874 595.284 21.5837 595.59 21.8115C595.903 22.0394 596.297 22.1533 596.772 22.1533C597.169 22.1533 597.511 22.0817 597.797 21.9385C598.084 21.7952 598.318 21.5804 598.5 21.2939C598.689 21.001 598.826 20.6364 598.91 20.2002C599.002 19.7575 599.047 19.2432 599.047 18.6572ZM607.744 20.9912V12.8662H609.473V23.4326H607.832L607.744 20.9912ZM608.066 18.7646L608.75 18.7451C608.75 19.4482 608.688 20.0993 608.564 20.6982C608.447 21.2907 608.252 21.805 607.978 22.2412C607.711 22.6774 607.357 23.0192 606.914 23.2666C606.471 23.5075 605.928 23.6279 605.283 23.6279C604.847 23.6279 604.45 23.5531 604.092 23.4033C603.74 23.2536 603.434 23.0225 603.174 22.71C602.92 22.3975 602.721 21.9906 602.578 21.4893C602.441 20.988 602.373 20.3857 602.373 19.6826V12.8662H604.092V19.7021C604.092 20.1774 604.134 20.5713 604.219 20.8838C604.303 21.1898 604.417 21.4339 604.56 21.6162C604.704 21.792 604.863 21.9157 605.039 21.9873C605.215 22.0589 605.394 22.0947 605.576 22.0947C606.188 22.0947 606.676 21.9482 607.041 21.6553C607.405 21.3558 607.666 20.9554 607.822 20.4541C607.985 19.9463 608.066 19.3831 608.066 18.7646ZM615.25 23.6279C614.618 23.6279 614.048 23.5335 613.541 23.3447C613.033 23.1559 612.6 22.8695 612.242 22.4854C611.884 22.0947 611.61 21.6032 611.421 21.0107C611.233 20.4183 611.138 19.7184 611.138 18.9111V17.7197C611.138 16.7887 611.246 16.001 611.46 15.3564C611.682 14.7119 611.978 14.1943 612.349 13.8037C612.72 13.4066 613.14 13.1201 613.609 12.9443C614.078 12.762 614.559 12.6709 615.054 12.6709C615.718 12.6709 616.285 12.7783 616.753 12.9932C617.222 13.208 617.603 13.527 617.896 13.9502C618.189 14.3734 618.404 14.8942 618.541 15.5127C618.684 16.1312 618.755 16.8441 618.755 17.6514V18.6572H612.154V17.1826H617.027V16.9385C617.001 16.3916 616.926 15.9098 616.802 15.4932C616.685 15.0765 616.49 14.751 616.216 14.5166C615.943 14.2757 615.556 14.1553 615.054 14.1553C614.735 14.1553 614.439 14.2106 614.166 14.3213C613.899 14.4255 613.667 14.611 613.472 14.8779C613.283 15.1383 613.134 15.4997 613.023 15.9619C612.919 16.4242 612.867 17.0101 612.867 17.7197V18.9111C612.867 19.4775 612.919 19.9658 613.023 20.376C613.134 20.7796 613.293 21.1149 613.501 21.3818C613.716 21.6423 613.977 21.8376 614.283 21.9678C614.595 22.0915 614.95 22.1533 615.347 22.1533C615.927 22.1533 616.405 22.0426 616.783 21.8213C617.16 21.5934 617.489 21.3037 617.769 20.9521L618.677 22.0361C618.488 22.3031 618.241 22.5602 617.935 22.8076C617.636 23.0485 617.264 23.2471 616.822 23.4033C616.386 23.5531 615.861 23.6279 615.25 23.6279ZM625.372 20.7275C625.372 20.4606 625.307 20.2262 625.177 20.0244C625.047 19.8226 624.832 19.6273 624.532 19.4385C624.239 19.2497 623.842 19.0479 623.341 18.833C622.853 18.6312 622.413 18.4326 622.023 18.2373C621.638 18.0355 621.313 17.8174 621.046 17.583C620.779 17.3486 620.574 17.0785 620.431 16.7725C620.294 16.46 620.226 16.0921 620.226 15.6689C620.226 15.2458 620.304 14.8551 620.46 14.4971C620.623 14.1325 620.851 13.8135 621.144 13.54C621.437 13.2666 621.788 13.055 622.198 12.9053C622.608 12.749 623.067 12.6709 623.575 12.6709C624.298 12.6709 624.913 12.8109 625.421 13.0908C625.929 13.3708 626.316 13.7549 626.583 14.2432C626.857 14.7249 626.993 15.2686 626.993 15.874H625.275C625.275 15.5811 625.209 15.3044 625.079 15.0439C624.949 14.7835 624.757 14.5719 624.503 14.4092C624.249 14.2399 623.94 14.1553 623.575 14.1553C623.191 14.1553 622.879 14.2236 622.638 14.3604C622.397 14.4971 622.221 14.6761 622.11 14.8975C622.006 15.1123 621.954 15.3499 621.954 15.6104C621.954 15.8057 621.98 15.9749 622.032 16.1182C622.091 16.2549 622.189 16.3851 622.325 16.5088C622.462 16.626 622.648 16.7497 622.882 16.8799C623.123 17.0036 623.429 17.1468 623.8 17.3096C624.516 17.5895 625.118 17.8727 625.607 18.1592C626.095 18.4456 626.466 18.7809 626.72 19.165C626.974 19.5492 627.101 20.0244 627.101 20.5908C627.101 21.0531 627.016 21.473 626.847 21.8506C626.684 22.2217 626.45 22.5407 626.144 22.8076C625.838 23.0745 625.47 23.2796 625.04 23.4229C624.617 23.5596 624.142 23.6279 623.614 23.6279C622.82 23.6279 622.146 23.4717 621.593 23.1592C621.046 22.8402 620.629 22.4268 620.343 21.9189C620.063 21.4046 619.923 20.8545 619.923 20.2686H621.651C621.671 20.7633 621.782 21.1475 621.983 21.4209C622.192 21.6943 622.442 21.8831 622.735 21.9873C623.028 22.0915 623.321 22.1436 623.614 22.1436C623.998 22.1436 624.321 22.0882 624.581 21.9775C624.842 21.8604 625.037 21.6943 625.167 21.4795C625.304 21.2646 625.372 21.014 625.372 20.7275ZM632.624 12.8662V14.2529H627.692V12.8662H632.624ZM629.303 10.2979H631.032V20.8154C631.032 21.1735 631.074 21.4437 631.159 21.626C631.25 21.8083 631.364 21.9287 631.501 21.9873C631.637 22.0459 631.784 22.0752 631.94 22.0752C632.057 22.0752 632.188 22.0622 632.331 22.0361C632.474 22.0036 632.572 21.9775 632.624 21.958L632.614 23.4326C632.497 23.4782 632.341 23.5205 632.145 23.5596C631.95 23.6051 631.703 23.6279 631.403 23.6279C631.032 23.6279 630.687 23.54 630.368 23.3643C630.049 23.1885 629.792 22.8955 629.596 22.4854C629.401 22.0687 629.303 21.5088 629.303 20.8057V10.2979ZM639.26 21.626V15.8936C639.26 15.4769 639.195 15.1416 639.065 14.8877C638.941 14.6338 638.752 14.4482 638.498 14.3311C638.251 14.2139 637.938 14.1553 637.561 14.1553C637.196 14.1553 636.88 14.2301 636.614 14.3799C636.353 14.5296 636.151 14.7282 636.008 14.9756C635.871 15.223 635.803 15.4964 635.803 15.7959H634.075C634.075 15.4183 634.156 15.0439 634.319 14.6729C634.488 14.3018 634.729 13.9665 635.041 13.667C635.354 13.361 635.728 13.1201 636.164 12.9443C636.607 12.762 637.102 12.6709 637.649 12.6709C638.3 12.6709 638.876 12.7783 639.377 12.9932C639.879 13.2015 640.272 13.5433 640.559 14.0186C640.845 14.4938 640.989 15.1253 640.989 15.9131V21.1279C640.989 21.4795 641.015 21.8538 641.067 22.251C641.125 22.6481 641.207 22.9899 641.311 23.2764V23.4326H639.524C639.439 23.2243 639.374 22.9476 639.328 22.6025C639.283 22.251 639.26 21.9255 639.26 21.626ZM639.533 17.0264L639.553 18.2959H638.352C637.942 18.2959 637.567 18.3415 637.229 18.4326C636.897 18.5238 636.61 18.6572 636.369 18.833C636.129 19.0023 635.943 19.2139 635.813 19.4678C635.689 19.7217 635.627 20.0114 635.627 20.3369C635.627 20.7601 635.686 21.0986 635.803 21.3525C635.92 21.5999 636.096 21.779 636.33 21.8896C636.565 22.0003 636.861 22.0557 637.219 22.0557C637.655 22.0557 638.039 21.9548 638.371 21.7529C638.703 21.5511 638.961 21.307 639.143 21.0205C639.332 20.734 639.42 20.4671 639.407 20.2197L639.787 21.0303C639.761 21.2842 639.677 21.5609 639.533 21.8604C639.397 22.1533 639.205 22.4365 638.957 22.71C638.71 22.9769 638.417 23.1982 638.078 23.374C637.746 23.5433 637.372 23.6279 636.955 23.6279C636.343 23.6279 635.806 23.5107 635.344 23.2764C634.888 23.042 634.533 22.6969 634.28 22.2412C634.026 21.7855 633.899 21.2223 633.899 20.5518C633.899 20.0439 633.987 19.5752 634.162 19.1455C634.338 18.7158 634.599 18.3447 634.944 18.0322C635.289 17.7132 635.722 17.4658 636.242 17.29C636.77 17.1143 637.379 17.0264 638.069 17.0264H639.533ZM650.843 23.6279C650.212 23.6279 649.642 23.5335 649.134 23.3447C648.626 23.1559 648.194 22.8695 647.835 22.4854C647.477 22.0947 647.204 21.6032 647.015 21.0107C646.826 20.4183 646.732 19.7184 646.732 18.9111V17.7197C646.732 16.7887 646.839 16.001 647.054 15.3564C647.276 14.7119 647.572 14.1943 647.943 13.8037C648.314 13.4066 648.734 13.1201 649.203 12.9443C649.671 12.762 650.153 12.6709 650.648 12.6709C651.312 12.6709 651.878 12.7783 652.347 12.9932C652.816 13.208 653.197 13.527 653.49 13.9502C653.783 14.3734 653.998 14.8942 654.134 15.5127C654.278 16.1312 654.349 16.8441 654.349 17.6514V18.6572H647.748V17.1826H652.621V16.9385C652.595 16.3916 652.52 15.9098 652.396 15.4932C652.279 15.0765 652.083 14.751 651.81 14.5166C651.537 14.2757 651.149 14.1553 650.648 14.1553C650.329 14.1553 650.033 14.2106 649.759 14.3213C649.492 14.4255 649.261 14.611 649.066 14.8779C648.877 15.1383 648.727 15.4997 648.617 15.9619C648.513 16.4242 648.46 17.0101 648.46 17.7197V18.9111C648.46 19.4775 648.513 19.9658 648.617 20.376C648.727 20.7796 648.887 21.1149 649.095 21.3818C649.31 21.6423 649.57 21.8376 649.876 21.9678C650.189 22.0915 650.544 22.1533 650.941 22.1533C651.52 22.1533 651.999 22.0426 652.376 21.8213C652.754 21.5934 653.083 21.3037 653.363 20.9521L654.271 22.0361C654.082 22.3031 653.835 22.5602 653.529 22.8076C653.229 23.0485 652.858 23.2471 652.416 23.4033C651.979 23.5531 651.455 23.6279 650.843 23.6279ZM657.567 15.1221V23.4326H655.839V12.8662H657.47L657.567 15.1221ZM657.148 17.749L656.444 17.7197C656.438 16.9971 656.519 16.3298 656.689 15.7178C656.864 15.0993 657.112 14.5622 657.431 14.1064C657.756 13.6507 658.144 13.2992 658.593 13.0518C659.042 12.7979 659.54 12.6709 660.087 12.6709C660.517 12.6709 660.907 12.7425 661.259 12.8857C661.61 13.0225 661.91 13.2438 662.157 13.5498C662.405 13.8558 662.594 14.2529 662.724 14.7412C662.86 15.223 662.929 15.8122 662.929 16.5088V23.4326H661.2V16.4893C661.2 15.9359 661.138 15.4932 661.015 15.1611C660.898 14.8226 660.715 14.5785 660.468 14.4287C660.227 14.2725 659.921 14.1943 659.55 14.1943C659.211 14.1943 658.896 14.2887 658.603 14.4775C658.31 14.6663 658.053 14.9268 657.831 15.2588C657.616 15.5908 657.447 15.9717 657.323 16.4014C657.206 16.8245 657.148 17.2738 657.148 17.749ZM676.709 21.9482V23.4326H668.76V22.1338L672.676 16.9482C673.158 16.3102 673.526 15.7699 673.78 15.3271C674.033 14.8779 674.209 14.4775 674.307 14.126C674.405 13.7679 674.453 13.4033 674.453 13.0322C674.453 12.5635 674.379 12.1403 674.229 11.7627C674.079 11.3786 673.861 11.0726 673.575 10.8447C673.288 10.6169 672.943 10.5029 672.539 10.5029C672.012 10.5029 671.579 10.6266 671.241 10.874C670.908 11.1149 670.664 11.4535 670.508 11.8896C670.352 12.3258 670.274 12.8271 670.274 13.3936H668.545C668.545 12.5928 668.692 11.8604 668.985 11.1963C669.284 10.5322 669.73 10.0049 670.323 9.61426C670.915 9.21712 671.654 9.01855 672.539 9.01855C673.301 9.01855 673.952 9.17806 674.492 9.49707C675.039 9.80957 675.456 10.2523 675.742 10.8252C676.035 11.3916 676.182 12.0557 676.182 12.8174C676.182 13.234 676.123 13.6572 676.006 14.0869C675.895 14.5101 675.739 14.9333 675.537 15.3564C675.342 15.7796 675.111 16.1963 674.844 16.6064C674.577 17.0166 674.291 17.4202 673.985 17.8174L670.83 21.9482H676.709ZM686.178 18.6475V20.1318H677.486V19.0674L682.769 9.21387H684.156L682.769 12.0654L679.41 18.6475H686.178ZM684.596 9.21387V23.4326H682.867V9.21387H684.596ZM689.21 8.43262V23.4326H687.482V8.43262H689.21ZM688.791 17.749L688.087 17.7197C688.081 16.9971 688.162 16.3298 688.332 15.7178C688.507 15.0993 688.755 14.5622 689.074 14.1064C689.399 13.6507 689.787 13.2992 690.236 13.0518C690.685 12.7979 691.183 12.6709 691.73 12.6709C692.16 12.6709 692.55 12.7425 692.902 12.8857C693.253 13.0225 693.553 13.2438 693.8 13.5498C694.048 13.8558 694.236 14.2529 694.367 14.7412C694.503 15.223 694.572 15.8122 694.572 16.5088V23.4326H692.843V16.4893C692.843 15.9359 692.781 15.4932 692.658 15.1611C692.541 14.8226 692.358 14.5785 692.111 14.4287C691.87 14.2725 691.564 14.1943 691.193 14.1943C690.854 14.1943 690.539 14.2887 690.246 14.4775C689.953 14.6663 689.695 14.9268 689.474 15.2588C689.259 15.5908 689.09 15.9717 688.966 16.4014C688.849 16.8245 688.791 17.2738 688.791 17.749Z" fill="#D6D6D6"/>
<path d="M533.098 24.9046C532.752 24.6765 532.287 24.7718 532.059 25.1175C531.831 25.4633 531.926 25.9285 532.272 26.1566L532.685 25.5306L533.098 24.9046ZM527 16.6751C527.298 16.9628 527.773 16.9544 528.06 16.6564L532.748 11.7996C533.036 11.5016 533.027 11.0268 532.729 10.7392C532.431 10.4515 531.956 10.4599 531.669 10.7579L527.502 15.075L523.185 10.9081C522.887 10.6205 522.412 10.6289 522.124 10.9269C521.837 11.2249 521.845 11.6997 522.143 11.9874L527 16.6751ZM543.125 20.5575C543.47 20.7866 543.935 20.6925 544.165 20.3473C544.394 20.0022 544.299 19.5367 543.954 19.3077L543.54 19.9326L543.125 20.5575ZM539.019 16.9326L538.269 16.9326L538.269 17.335L538.604 17.5575L539.019 16.9326ZM539.769 9.93262C539.769 9.5184 539.433 9.18262 539.019 9.18262C538.605 9.18262 538.269 9.5184 538.269 9.93262L539.019 9.93262L539.769 9.93262ZM532.685 25.5306L532.272 26.1566C534.557 27.6641 537.28 28.3631 540.009 28.1419L539.948 27.3943L539.888 26.6468C537.493 26.8409 535.103 26.2275 533.098 24.9046L532.685 25.5306ZM539.948 27.3943L540.009 28.1419C542.737 27.9207 545.313 26.7921 547.325 24.9362L546.816 24.3849L546.308 23.8336C544.542 25.4623 542.282 26.4527 539.888 26.6468L539.948 27.3943ZM546.816 24.3849L547.325 24.9362C549.337 23.0803 550.669 20.604 551.109 17.9024L550.369 17.7818L549.629 17.6611C549.242 20.0319 548.073 22.205 546.308 23.8336L546.816 24.3849ZM550.369 17.7818L551.109 17.9024C551.55 15.2008 551.072 12.4296 549.754 10.0309L549.097 10.3922L548.439 10.7535C549.596 12.8585 550.015 15.2904 549.629 17.6611L550.369 17.7818ZM549.097 10.3922L549.754 10.0309C548.435 7.6322 546.351 5.74421 543.834 4.66818L543.54 5.3578L543.245 6.04741C545.453 6.99169 547.282 8.64849 548.439 10.7535L549.097 10.3922ZM543.54 5.3578L543.834 4.66818C541.318 3.59214 538.513 3.39005 535.868 4.09416L536.061 4.81892L536.254 5.54368C538.575 4.9258 541.036 5.10314 543.245 6.04741L543.54 5.3578ZM536.061 4.81892L535.868 4.09416C533.223 4.79826 530.889 6.36799 529.241 8.55289L529.839 9.00467L530.438 9.45645C531.885 7.53908 533.932 6.16157 536.254 5.54368L536.061 4.81892ZM529.839 9.00467L529.241 8.55289C527.592 10.7378 526.722 13.412 526.771 16.1488L527.521 16.1355L528.27 16.1222C528.228 13.7205 528.991 11.3738 530.438 9.45645L529.839 9.00467ZM543.54 19.9326L543.954 19.3077L539.434 16.3077L539.019 16.9326L538.604 17.5575L543.125 20.5575L543.54 19.9326ZM539.019 16.9326L539.769 16.9326L539.769 9.93262L539.019 9.93262L538.269 9.93262L538.269 16.9326L539.019 16.9326Z" fill="#D6D6D6"/>
<circle cx="273.552" cy="15.499" r="2.5" fill="#D9D9D9"/>
<circle cx="492.586" cy="15.499" r="2.5" fill="#D9D9D9"/>
</svg>
